<svg width="48" height="48" viewBox="0 0 48 48" fill="none" xmlns="http://www.w3.org/2000/svg">
<path d="M24.9026 10.014L26.9089 14.0903L31.4053 14.7392C31.8673 14.8052 32.0499 15.3728 31.7177 15.6961L28.4641 18.8639L29.2341 23.3428C29.2519 23.446 29.2404 23.5521 29.201 23.6491C29.1616 23.7461 29.0958 23.8302 29.0111 23.8918C28.9264 23.9533 28.8262 23.99 28.7217 23.9975C28.6173 24.0051 28.5128 23.9833 28.4201 23.9345L24.3988 21.8183L20.3797 23.9345C20.2871 23.9833 20.1826 24.0051 20.0781 23.9975C19.9737 23.99 19.8734 23.9533 19.7887 23.8918C19.704 23.8302 19.6383 23.7461 19.5989 23.6491C19.5595 23.5521 19.548 23.446 19.5658 23.3428L20.3358 18.8661L17.08 15.6983C17.0043 15.6253 16.9507 15.5324 16.9253 15.4303C16.8999 15.3283 16.9037 15.2211 16.9363 15.1211C16.9689 15.0211 17.0289 14.9322 17.1095 14.8647C17.1902 14.7972 17.2882 14.7537 17.3924 14.7392L21.8888 14.0903L23.8951 10.014C23.9413 9.91971 24.0129 9.8403 24.102 9.78476C24.191 9.72922 24.2939 9.69977 24.3988 9.69977C24.5038 9.69977 24.6066 9.72922 24.6957 9.78476C24.7848 9.8403 24.8564 9.91971 24.9026 10.014V10.014ZM39.7977 17.401C39.798 14.8752 39.1771 12.3881 37.9896 10.1589C36.802 7.92966 35.0844 6.02678 32.988 4.61795C30.8916 3.20911 28.4808 2.33759 25.9682 2.08018C23.4555 1.82277 20.9181 2.18738 18.5796 3.14188C16.2411 4.09638 14.1733 5.61146 12.5584 7.55358C10.9436 9.49571 9.83122 11.8052 9.31943 14.2787C8.80764 16.7521 8.91212 19.3134 9.62367 21.7369C10.3352 24.1604 11.632 26.3717 13.3997 28.1758V44.349L13.4173 44.58C13.4568 44.8599 13.5676 45.125 13.739 45.3498C13.9104 45.5746 14.1367 45.7516 14.3962 45.8638C14.6557 45.9759 14.9397 46.0196 15.2209 45.9905C15.5021 45.9613 15.7711 45.8605 16.0021 45.6975L24.3966 39.7865L32.7978 45.6997L32.9936 45.8185C33.2452 45.9474 33.5257 46.0095 33.8082 45.9988C34.0907 45.9882 34.3657 45.9051 34.6069 45.7575C34.8481 45.61 35.0473 45.403 35.1854 45.1564C35.3236 44.9097 35.396 44.6317 35.3958 44.349L35.4002 28.1758C38.2236 25.3007 39.8031 21.4306 39.7977 17.401V17.401ZM32.0983 30.7408V41.1702L25.3448 36.4186L25.1248 36.2866C24.8589 36.1559 24.5628 36.0991 24.2675 36.1224C23.9721 36.1456 23.6885 36.2479 23.4463 36.4186L16.7016 41.1702V30.7408C19.041 32.0936 21.6965 32.8039 24.3988 32.7999C27.2036 32.7999 29.8324 32.0519 32.0983 30.7408ZM12.2998 17.401C12.2998 14.1921 13.5745 11.1147 15.8435 8.84565C18.1125 6.57663 21.19 5.30191 24.3988 5.30191C27.6077 5.30191 30.6852 6.57663 32.9542 8.84565C35.2232 11.1147 36.4979 14.1921 36.4979 17.401C36.4979 20.6099 35.2232 23.6873 32.9542 25.9564C30.6852 28.2254 27.6077 29.5001 24.3988 29.5001C21.19 29.5001 18.1125 28.2254 15.8435 25.9564C13.5745 23.6873 12.2998 20.6099 12.2998 17.401V17.401Z" fill="white"/>
</svg>
