<svg width="48" height="48" viewBox="0 0 48 48" fill="none" xmlns="http://www.w3.org/2000/svg">
<path d="M21 31H27V26H32V20H27V15H21V20H16V26H21V31ZM24 44C19.3667 42.8333 15.542 40.1747 12.526 36.024C9.50867 31.8747 8 27.2667 8 22.2V10L24 4L40 10V22.2C40 27.2667 38.492 31.8747 35.476 36.024C32.4587 40.1747 28.6333 42.8333 24 44ZM24 39.8C27.4667 38.7 30.3333 36.5 32.6 33.2C34.8667 29.9 36 26.2333 36 22.2V12.75L24 8.25L12 12.75V22.2C12 26.2333 13.1333 29.9 15.4 33.2C17.6667 36.5 20.5333 38.7 24 39.8V39.8Z" fill="white"/>
</svg>
