<svg width="48" height="48" viewBox="0 0 48 48" fill="none" xmlns="http://www.w3.org/2000/svg">
<path d="M32.8049 7.28C34.121 5.76 35.7893 5 37.8098 5C39.4966 5 40.9054 5.61171 42.0732 6.85366C43.241 8.09561 43.8527 9.50439 43.9268 11.1171C43.9268 12.4146 43.3151 13.9161 42.0732 15.6771C40.8312 17.438 39.6263 18.9024 38.4215 20.1073C37.2166 21.2937 35.3444 23.0546 32.8049 25.3902C30.2283 23.0546 28.3376 21.2937 27.1327 20.1073C25.9278 18.921 24.7044 17.438 23.481 15.6771C22.2576 13.9161 21.6829 12.4146 21.6829 11.1171C21.6829 9.43024 22.2761 8.02146 23.481 6.85366C24.6859 5.68585 26.1317 5.07415 27.8185 5C29.802 5 31.4517 5.76 32.8049 7.28ZM43.9268 36.5122V38.3659L29.0976 43L16.122 39.4039V42.0732H5V21.6829H19.7737L31.1922 25.9463C32.2097 26.3302 33.0863 27.0145 33.7054 27.9085C34.3246 28.8025 34.657 29.8638 34.6585 30.9512H38.3659C41.4429 30.9512 43.9268 33.4351 43.9268 36.5122ZM12.4146 38.3659V25.3902H8.70732V38.3659H12.4146ZM40.0341 35.7151C39.7376 35.1034 39.0888 34.6585 38.3659 34.6585H28.4488C27.4478 34.6585 26.4654 34.5102 25.52 34.1951L21.1083 32.7307L22.2761 29.2088L26.6878 30.6732C27.2439 30.8585 30.9512 30.9512 30.9512 30.9512C30.9512 30.2654 30.5249 29.6537 29.8946 29.4127L19.1063 25.3902H16.122V35.5854L29.042 39.1259L40.0341 35.7151Z" fill="white"/>
</svg>
